<svg width="20" height="20" viewBox="0 0 20 20" fill="none" xmlns="http://www.w3.org/2000/svg">
<path opacity="0.3" d="M12.528 6.528L2 17.056V18H2.944L13.472 7.472L12.528 6.528Z" fill="white"/>
<path opacity="0.3" d="M9.264 7.536L8.656 6.928L7.792 7.792L6.72 6.736L7.584 5.856L5.904 4.16L5.024 5.04L3.968 3.968L4.832 3.104L3.728 2L2 3.728L7.536 9.264L9.264 7.536Z" fill="white"/>
<path opacity="0.3" d="M16.0638 16.064L14.9918 15.008L15.8718 14.128L14.1758 12.448L13.2958 13.312L12.2398 12.24L13.1038 11.376L12.4638 10.736L10.7358 12.464L16.2718 18L17.9998 16.272L16.9278 15.2L16.0638 16.064Z" fill="white"/>
<path d="M19.136 15.136L13.6 9.6L15.728 7.472L12.528 4.272L10.4 6.4L4.864 0.863996C4.24 0.239996 3.216 0.239996 2.592 0.863996L0.863996 2.592C0.239996 3.216 0.239996 4.24 0.863996 4.864L6.4 10.4L0.399996 16.4V19.6H3.6L9.6 13.6L15.136 19.136C15.76 19.76 16.768 19.76 17.392 19.136L19.12 17.408C19.76 16.784 19.76 15.76 19.136 15.136ZM2 3.728L3.728 2L4.832 3.104L3.968 3.968L5.024 5.04L5.888 4.176L7.584 5.872L6.72 6.736L7.792 7.808L8.656 6.944L9.264 7.552L7.536 9.264L2 3.728ZM2.944 18H2V17.056L12.528 6.528L13.472 7.472L2.944 18ZM16.272 18L10.736 12.464L12.464 10.736L13.104 11.376L12.24 12.24L13.312 13.312L14.176 12.448L15.872 14.144L15.008 15.008L16.08 16.08L16.944 15.216L18 16.272L16.272 18Z" fill="white"/>
<path d="M18.9919 4.20799C19.3119 3.88799 19.3119 3.39199 18.9919 3.07199L16.9279 1.00799C16.6079 0.68799 16.1119 0.68799 15.7919 1.00799L13.6479 3.15199L16.8479 6.35199L18.9919 4.20799Z" fill="white"/>
</svg>
