<svg width="385" height="125" viewBox="0 0 385 125" fill="white" xmlns="http://www.w3.org/2000/svg">
<path d="M7.08 21H10.98V3.3H17.94V-1.43051e-06H0.12V3.3H7.08V21ZM37.7269 -1.43051e-06V8.67H26.8669V-1.43051e-06H22.9669V21H26.8669V12H37.7269V21H41.6269V-1.43051e-06H37.7269ZM53.254 17.73V11.94H63.394V8.73H53.254V3.27H64.684V-1.43051e-06H49.354V21H65.104V17.73H53.254Z" fill="white"/>
<path d="M320.82 125H335.7V121.7H324.72V104H320.82V125ZM356.745 125H360.825L351.345 104H347.505L338.055 125H342.075L344.145 120.14H354.645L356.745 125ZM345.465 117.08L349.395 107.9L353.355 117.08H345.465ZM380.476 114.08C382.096 113.21 383.176 111.62 383.176 109.46C383.176 106.13 380.476 104 375.436 104H365.596V125H376.036C381.436 125 384.256 122.9 384.256 119.3C384.256 116.57 382.726 114.8 380.476 114.08ZM375.016 107.06C377.716 107.06 379.246 108.02 379.246 109.97C379.246 111.89 377.716 112.85 375.016 112.85H369.496V107.06H375.016ZM375.796 121.94H369.496V115.88H375.796C378.736 115.88 380.326 116.81 380.326 118.91C380.326 121.01 378.736 121.94 375.796 121.94Z" fill="white"/>
<path d="M32.872 43.8V70.344L11.256 43.8H5.264V83H12.488V56.456L34.104 83H40.096V43.8H32.872ZM61.7999 76.896V66.088H80.7279V60.096H61.7999V49.904H83.1359V43.8H54.5199V83H83.9199V76.896H61.7999ZM128.614 83L113.886 62.728L127.606 43.8H119.71L109.798 57.744L99.7741 43.8H91.5421L105.318 63.008L90.7581 83H99.0461L109.574 68.104L120.214 83H128.614ZM144.523 83H151.803V49.96H164.795V43.8H131.531V49.96H144.523V83Z" fill="white"/>
<path d="M198.416 83.56C209.168 83.56 214.264 78.184 214.264 71.912C214.264 57.52 191.024 62.952 191.024 54.608C191.024 51.64 193.488 49.288 199.536 49.288C202.952 49.288 206.816 50.296 210.344 52.368L212.64 46.712C209.224 44.472 204.296 43.24 199.592 43.24C188.84 43.24 183.8 48.616 183.8 54.944C183.8 69.504 207.096 63.96 207.096 72.416C207.096 75.328 204.52 77.512 198.416 77.512C193.6 77.512 188.616 75.72 185.48 73.2L182.96 78.856C186.208 81.656 192.312 83.56 198.416 83.56ZM232.808 83H240.088V49.96H253.08V43.8H219.816V49.96H232.808V83ZM289.839 83H297.455L279.759 43.8H272.591L254.951 83H262.455L266.319 73.928H285.919L289.839 83ZM268.783 68.216L276.119 51.08L283.511 68.216H268.783ZM332.581 75.16C330.061 76.616 327.317 77.176 324.517 77.176C316.229 77.176 310.349 71.352 310.349 63.4C310.349 55.28 316.229 49.624 324.573 49.624C328.773 49.624 332.301 51.024 335.381 54.104L339.973 49.624C336.277 45.424 330.789 43.24 324.237 43.24C311.973 43.24 303.013 51.696 303.013 63.4C303.013 75.104 311.973 83.56 324.125 83.56C329.669 83.56 335.381 81.88 339.469 78.576V62.952H332.581V75.16ZM360.271 76.896V66.088H379.199V60.096H360.271V49.904H381.607V43.8H352.991V83H382.391V76.896H360.271Z" fill="white"/>
</svg>
